/* XPM */
static char *ee33851e468a472de7c2003c0890d5ff[] = {
/* columns rows colors chars-per-pixel */
"64 64 2 1 ",
"  c #CC9933",
". c None",
/* pixels */
"..........................            ..........................",
".......................                  .......................",
"....................                        ....................",
"..................        ............        ..................",
"................       ..................       ................",
"..............      ........................      ..............",
".............     ............................     .............",
"............     ...............................    ............",
"...........    ..................................     ..........",
".........     ....................................     .........",
".........    .......................................    ........",
"........   ..........................................   ........",
".......    ...........................................   .......",
"......    ............................................    ......",
".....    ....................      ....................    .....",
".....   ....................        ....................   .....",
"....   ....................          ....................   ....",
"....   .............   ....   ....   .....  .............    ...",
"...   .......  .....   ....   .....  .....  .....  .......   ...",
"...   .......    ...   ...   ......   ....  ...    .......   ...",
"..   ........      .   ...   ......  .....         ........   ..",
"..   ........          ...   ......   ....         ........   ..",
"..   ........   .      ....  ......  ....          .........   .",
".   .........   ..      ...  ......  ...      ..   .........   .",
".   .........   ....      ............       ...   .........   .",
".   .........   ....        ........        ....   .........   .",
"   ..........   ....   .      ....      .   ....   ..........   ",
"   ..........   ....   ...            ....  ....   ..........   ",
"   ..........   ....   ...            ....  ....   ..........   ",
"   ..........   ....   ....          ....   ....   ..........   ",
"   ..........   ....     .   ... ..   .     ....   ..........   ",
"   ..........   ....         ......         ....   ..........   ",
"   ..........   ....           ..           ....   ..........   ",
"   ..........   ....   .                ..  ....   ..........   ",
"   ..........   ....   ...            ....  ....   ..........   ",
"   ..........   ....   ....   ....   .....  ....   ..........   ",
"   ..........   ....   ....  ......  .....  ....   ..........   ",
"   ..........   ....   ...   ......   ....  ....   ..........   ",
".   .........   ....   ...   ......   ....  ....   .........   .",
".   .........   ....   ...   ......   ....  ....   .........   .",
".   .........   ....   ...   ......   ....  ....   .........   .",
"..   ........   ....   ...   ......   ....  ....   .........   .",
"..   ........   ....   ...   ......   ....  ....   ........   ..",
"..   ........   ....   ...   ......   ....  ....   ........   ..",
"...   .......   ....   ...   ......   ....  ....   .......    ..",
"...   .......   ....   ...   ......   ....  ....   .......   ...",
"....   ......  .....   ...   ......   ....  .....  ......    ...",
"....   ....................  ......  ....................   ....",
".....   ..................   ......   ..................   .....",
".....    .................   ......   .................    .....",
"......    .............................................   ......",
".......   ............................................   .......",
"........   ..........................................    .......",
"........    ........................................    ........",
".........     .....................................    .........",
"..........     ..................................     ..........",
"...........     ................................     ...........",
".............     ............................     .............",
"..............      ........................      ..............",
"................      ....................      ................",
".................         ............         .................",
"....................                        ....................",
"......................                    ......................",
"..........................            .........................."
};
