/* XPM */
static char *e5066fa08b5f42bbdc5dd815b0854fcb[] = {
/* columns rows colors chars-per-pixel */
"128 128 2 1 ",
"  c #CC9933",
". c None",
/* pixels */
"........................................................                ........................................................",
"....................................................                        ....................................................",
"...............................................                                  ...............................................",
"............................................                                         ...........................................",
".........................................                                              .........................................",
".......................................                                                   ......................................",
"....................................                    ................                    ....................................",
"...................................                ..........................                 ..................................",
".................................              ..................................               ................................",
"...............................             ........................................             ...............................",
".............................             ............................................             .............................",
"............................           ..................................................           ............................",
"...........................           .....................................................           ..........................",
".........................           .........................................................          .........................",
"........................          ............................................................          ........................",
".......................         ................................................................         .......................",
"......................         ...................................................................         .....................",
".....................        ......................................................................         ....................",
"...................         ........................................................................         ...................",
"..................         ..........................................................................         ..................",
"..................        ............................................................................         .................",
".................        ...............................................................................        ................",
"................       ..................................................................................       ................",
"...............       ....................................................................................       ...............",
"..............        .....................................................................................       ..............",
".............        ......................................................................................        .............",
".............       ........................................................................................        ............",
"............       ...........................................    ...........................................        ...........",
"...........       ..........................................        ..........................................       ...........",
"..........       .........................................            .........................................       ..........",
"..........       ........................................               ........................................      ..........",
".........       ........................................                ........................................       .........",
"........       ........................................                  ........................................       ........",
"........       ..........................   ..........         ...        ..........   ...........................      ........",
"........      ..........................     .........       ......       .........      .........................       .......",
".......      .............  ............     ........       .........      ........      ...........  .............      .......",
"......       ............    ...........     ........      ..........      ........      ..........    ............       ......",
"......      .............      .........     ........      ..........      ........      ........      .............      ......",
".....       .............        .......     ........      ..........      ........      ......        .............       .....",
".....      ..............          .....     ........      ..........      ........      .....         ..............      .....",
".....      ..............            ...     ........      ..........      ........      ...           ..............      .....",
"....       ..............                    ........      ..........      ........                    ...............      ....",
"....      ...............                    ........      ..........      ........                    ...............      ....",
"...       ...............                    ........      ..........      ........                    ...............       ...",
"...      ................                    ........      ..........      ........                    ................      ...",
"...      ................      ...            .......      ..........      .......            ...      ................      ...",
"...      ................      .....            ......     ..........     ......            .....      .................      ..",
"..      .................      .......            .....    ..........    ......            ......      .................      ..",
"..      .................      ........             .................  .....             ........      .................      ..",
"..      .................      .........             ......................              ........      .................      ..",
"..      .................      .........               ..................                ........      ..................     ..",
".      ..................      .........                 ..............                  ........      ..................      .",
".      ..................      .........     ..            ..........            ..      ........      ..................      .",
".      ..................      .........     ....            ......            ....      ........      ..................      .",
".      ..................      .........     ......            ..            ......      ........      ...................      ",
".     ...................      .........     .......                        .......      ........      ...................      ",
"      ...................      .........     ........                      ........      ........      ...................      ",
"      ...................      .........     ........                      ........      ........      ...................      ",
"      ...................      .........      .......                      .......       ........      ...................      ",
"      ...................      .........       ......                      ......        ........      ...................      ",
"      ...................      .........        .....      ...    ...      ....          ........      ...................      ",
"      ...................      .........          ...      ..........      ..            ........      ...................      ",
"      ...................      .........                   ..........                    ........      ...................      ",
"      ...................      .........                   ..........                    ........      ...................      ",
"      ...................      .........                    ........                     ........      ...................      ",
"      ...................      .........                                                 ........      ...................      ",
"      ...................      .........     ...                                ...      ........      ...................      ",
"      ...................      .........     ....                             .....      ........      ...................      ",
"      ...................      .........     ......                         .......      ........      ...................      ",
"      ...................      .........     ........                      ........      ........      ...................      ",
"      ...................      .........     ........                      ........      ........      ...................      ",
"      ...................      .........     ........      ..........      ........      ........      ...................      ",
"      ...................      .........     ........      ..........      ........      ........      ...................      ",
".      ..................      .........     ........      ..........      ........      ........      ...................      ",
".      ..................      .........     ........      ..........      ........      ........      ..................      .",
".      ..................      .........     ........      ..........      ........      ........      ..................      .",
".      ..................      .........     ........      ..........      ........      ........      ..................      .",
"..      .................      .........     ........      ..........      ........      ........      ..................      .",
"..      .................      .........     ........      ..........      ........      ........      .................      ..",
"..      .................      .........     ........      ..........      ........      ........      .................      ..",
"..      .................      .........     ........      ..........      ........      ........      .................      ..",
"...     .................      .........     ........      ..........      ........      ........      .................      ..",
"...      ................      .........     ........      ..........      ........      ........      ................      ...",
"...      ................      .........     ........      ..........      ........      ........      ................      ...",
"...       ...............      .........     ........      ..........      ........      ........      ...............       ...",
"....      ...............      .........     ........      ..........      ........      ........      ...............      ....",
"....      ...............      .........     ........      ..........      ........      ........      ...............      ....",
".....      ..............      .........     ........      ..........      ........      ........      ..............      .....",
".....      ..............      .........     ........      ..........      ........      ........      ..............      .....",
".....       .............      .........     ........      ..........      ........      ........      ..............      .....",
"......      .............      .........     ........      ..........      ........      ........      .............      ......",
"......       ............      .........     ........      ..........      ........      ........      ............       ......",
".......      .............     .........     ........      ..........      ........      ........     .............      .......",
".......       ............    ..........     ........      ..........      ........      .........    ............       .......",
"........      ..........................    .........      ..........      .........    ..........................      ........",
"........       ......................................      ..........      ......................................       ........",
".........       .....................................      ..........      .....................................       .........",
"..........      .....................................      ..........      .....................................       .........",
"..........       ....................................      ..........      ....................................       ..........",
"...........       ...................................      ..........      ...................................       ...........",
"...........        ...................................    ............    ...................................        ...........",
"............       ..........................................................................................       ............",
".............       ........................................................................................       .............",
"..............       ......................................................................................       ..............",
"...............       ....................................................................................        ..............",
"...............        ..................................................................................        ...............",
"................        ................................................................................        ................",
".................        ..............................................................................        .................",
"..................        ............................................................................        ..................",
"...................         ........................................................................         ...................",
"....................         ......................................................................         ....................",
".....................         ....................................................................         .....................",
"......................          ................................................................          ......................",
"........................         ..............................................................          .......................",
".........................          ..........................................................          .........................",
"..........................           ......................................................           ..........................",
"...........................            ...................................................           ...........................",
".............................            ..............................................            .............................",
"..............................             ..........................................             ..............................",
"................................              ....................................              ................................",
"..................................                ............................                ..................................",
"....................................                  ....................                   ...................................",
"......................................                                                    ......................................",
".........................................                                               ........................................",
"...........................................                                           ..........................................",
"..............................................                                    ..............................................",
"..................................................                            ..................................................",
"......................................................                    ......................................................"
};
