/* XPM */
static char *_5cc49f2cebb49f88720910644d88fcb[] = {
/* columns rows colors chars-per-pixel */
"16 16 2 1 ",
"  c #CC9933",
". c None",
/* pixels */
".....      .....",
".... ......  ...",
".. .......... ..",
".............. .",
". .....  ..... .",
" ..   ....   .. ",
" .. .  ..  . .. ",
" .. .      . .. ",
" .. .      . .. ",
" .. . ...... .. ",
" .. . ...... .. ",
". ............ .",
". ............ .",
".. .......... ..",
"...  ......  ...",
".....      ....."
};
