/* XPM */
static char *_ec661660e184dcfa4238cb59786e8d4[] = {
/* columns rows colors chars-per-pixel */
"32 32 2 1 ",
"  c #CC9933",
". c None",
/* pixels */
"............        ............",
".........              .........",
"........   ..........    .......",
"......   ..............   ......",
".....  ..................  .....",
"....  ....................  ....",
"...  ......................  ...",
"... ..........    ..........  ..",
"..  ...... ...  . ... ......  ..",
".  ...  .. ..  ..  .. ..  ...  .",
".  ...     ..  ..  ..     ...  .",
". ....  .   .  ..  .   .  .... .",
"  ....  ..    ....    ..  ....  ",
"  ....  .. .   ..   . ..  ....  ",
"  ....  .. ..      .. ..  ....  ",
"  ....  ..     ..     ..  ....  ",
"  ....  ..            ..  ....  ",
"  ....  .. ..      .. ..  ....  ",
"  ....  .. ..  ..  .. ..  ....  ",
"  ....  .. ..  ..  .. ..  ....  ",
". ....  .. ..  ..  .. ..  .... .",
".  ...  .. ..  ..  .. ..  ...  .",
".  ...  .. ..  ..  .. ..  ...  .",
"..  ...... ..  ..  .. ......  ..",
"..  .........  ..  .........  ..",
"...  ......................  ...",
"....  ....................  ....",
".....  ..................  .....",
"......   ..............   ......",
".......    ..........    .......",
".........      ..      .........",
"............        ............"
};
